<?xml version="1.0" encoding="iso-8859-1"?>
<!-- Generator: Adobe Illustrator 19.0.0, SVG Export Plug-In . SVG Version: 6.00 Build 0)  -->
<svg xmlns="http://www.w3.org/2000/svg" xmlns:xlink="http://www.w3.org/1999/xlink" version="1.1" id="Layer_1" x="0px" y="0px" viewBox="0 0 227.895 227.895" style="enable-background:new 0 0 227.895 227.895;" xml:space="preserve" width="80px" height="80px">
<g>
	<g>
		<g>
			<path d="M185.823,80.922c0.84-3.104,0.418-6.344-1.188-9.121L146.639,5.99c-3.303-5.719-10.633-7.681-16.372-4.405     c-0.007,0.004-0.016,0.005-0.023,0.009l-0.01,0.006c-0.005,0.004-0.011,0.005-0.017,0.008L30.494,59.184l-7.64,4.41     c-0.019,0.011-0.031,0.029-0.05,0.04c-5.678,3.34-7.629,10.65-4.341,16.354L56.459,145.8c1.602,2.772,4.192,4.754,7.297,5.582     c1.035,0.277,2.086,0.414,3.129,0.414c2.086,0,4.144-0.547,5.996-1.615l107.336-61.969     C182.994,86.607,184.987,84.02,185.823,80.922z M80.549,39.523l44.692-25.802l-21.387,66.166L35.859,65.324L80.549,39.523z      M62.358,140.016L25.393,75.99c-0.876-1.522-0.596-3.358,0.506-4.617l49.548,10.611L62.358,140.016z M69.972,142.624     L83.271,83.66l22.442,4.807c0.281,0.058,0.562,0.088,0.84,0.088c1.699,0,3.258-1.092,3.801-2.77l7.059-21.839l57.715,17.966     L69.972,142.624z M119.873,56.336l15.586-48.219c1.645-0.329,3.375,0.354,4.251,1.873l36.967,64.027L119.873,56.336z" fill="#78CFCF"/>
			<path d="M208.065,109.547l-23.18-6.213c-2.133-0.564-4.324,0.695-4.898,2.828c-0.574,2.133,0.695,4.326,2.828,4.898l13.119,3.517     l-66.49,38.388l4,6.93l67.42-38.925l-3.908,14.587c-0.57,2.135,0.695,4.328,2.828,4.898c0.348,0.094,0.695,0.139,1.039,0.139     c1.766-0.002,3.383-1.18,3.859-2.967l6.211-23.182C211.463,112.313,210.198,110.119,208.065,109.547z" fill="#78CFCF"/>
			<path d="M168.065,177.547l-23.18-6.213c-2.125-0.574-4.324,0.693-4.898,2.828c-0.574,2.133,0.695,4.326,2.828,4.898l13.119,3.517     l-66.49,38.388l4,6.93l67.42-38.925l-3.908,14.587c-0.57,2.135,0.695,4.328,2.828,4.898c0.348,0.094,0.695,0.139,1.039,0.139     c1.766-0.002,3.383-1.18,3.859-2.967l6.211-23.182C171.463,180.313,170.198,178.119,168.065,177.547z" fill="#78CFCF"/>
		</g>
	</g>
</g>
<g>
</g>
<g>
</g>
<g>
</g>
<g>
</g>
<g>
</g>
<g>
</g>
<g>
</g>
<g>
</g>
<g>
</g>
<g>
</g>
<g>
</g>
<g>
</g>
<g>
</g>
<g>
</g>
<g>
</g>
</svg>
